<svg width="32" height="32" viewBox="0 0 32 32" fill="none" xmlns="http://www.w3.org/2000/svg">
<circle cx="16" cy="16" r="9.5" stroke="#356643"/>
<path d="M21.5 16C21.5 18.6864 20.8456 21.0942 19.8139 22.8138C18.7762 24.5434 17.4122 25.5 16 25.5C14.5878 25.5 13.2238 24.5434 12.1861 22.8138C11.1544 21.0942 10.5 18.6864 10.5 16C10.5 13.3136 11.1544 10.9058 12.1861 9.18618C13.2238 7.45665 14.5878 6.5 16 6.5C17.4122 6.5 18.7762 7.45665 19.8139 9.18618C20.8456 10.9058 21.5 13.3136 21.5 16Z" stroke="#356643"/>
<line x1="16" y1="7" x2="16" y2="25" stroke="#356643"/>
<line x1="25" y1="16" x2="7" y2="16" stroke="#356643"/>
<line x1="24" y1="10.5" x2="8" y2="10.5" stroke="#356643"/>
<line x1="24" y1="21.5" x2="8" y2="21.5" stroke="#356643"/>
</svg>
