<svg width="32" height="32" viewBox="0 0 32 32" fill="none" xmlns="http://www.w3.org/2000/svg">
<circle cx="16" cy="16" r="9.5" stroke="#356643"/>
<path d="M20.5 16C20.5 18.7006 19.9516 21.1209 19.0883 22.8475C18.2101 24.604 17.0893 25.5 16 25.5C14.9107 25.5 13.7899 24.604 12.9117 22.8475C12.0484 21.1209 11.5 18.7006 11.5 16C11.5 13.2994 12.0484 10.8791 12.9117 9.15254C13.7899 7.39605 14.9107 6.5 16 6.5C17.0893 6.5 18.2101 7.39605 19.0883 9.15254C19.9516 10.8791 20.5 13.2994 20.5 16Z" stroke="#356643"/>
<path d="M16 13.5C18.7268 13.5 21.1761 13.8322 22.9274 14.3576C23.8062 14.6212 24.481 14.9252 24.9249 15.2401C25.3818 15.5642 25.5 15.8282 25.5 16C25.5 16.1718 25.3818 16.4358 24.9249 16.7599C24.481 17.0748 23.8062 17.3788 22.9274 17.6424C21.1761 18.1678 18.7268 18.5 16 18.5C13.2732 18.5 10.8239 18.1678 9.07261 17.6424C8.19378 17.3788 7.51902 17.0748 7.07512 16.7599C6.61823 16.4358 6.5 16.1718 6.5 16C6.5 15.8282 6.61823 15.5642 7.07512 15.2401C7.51902 14.9252 8.19378 14.6212 9.07261 14.3576C10.8239 13.8322 13.2732 13.5 16 13.5Z" stroke="#356643"/>
<line x1="16" y1="7" x2="16" y2="25" stroke="#356643"/>
</svg>
